<svg width="62" height="28" viewBox="0 0 62 28" fill="none" xmlns="http://www.w3.org/2000/svg">
<path d="M12.0557 1H49.9443C55.9151 1 61 6.67474 61 14C61 21.3253 55.9151 27 49.9443 27H12.0557C6.08495 27 1 21.3253 1 14C1 6.67474 6.08495 1 12.0557 1Z" fill="#054A5B" stroke="#CCCCCC" stroke-width="2"/>
<path d="M19.6809 19H17.3741L20.889 8.81818H23.6632L27.1731 19H24.8663L22.3159 11.1449H22.2363L19.6809 19ZM19.5368 14.9979H24.9856V16.6783H19.5368V14.9979ZM30.8173 19.1243C30.2373 19.1243 29.7119 18.9751 29.2413 18.6768C28.774 18.3752 28.4028 17.9328 28.1277 17.3494C27.8559 16.7628 27.72 16.0436 27.72 15.1918C27.72 14.3168 27.8609 13.5893 28.1426 13.0092C28.4243 12.4259 28.7988 11.9901 29.2662 11.7017C29.7368 11.41 30.2522 11.2642 30.8123 11.2642C31.2399 11.2642 31.5962 11.3371 31.8812 11.483C32.1696 11.6255 32.4016 11.8045 32.5772 12.0199C32.7562 12.232 32.8921 12.4408 32.9849 12.6463H33.0495V8.81818H35.1625V19H33.0744V17.777H32.9849C32.8855 17.9891 32.7446 18.1996 32.5623 18.4084C32.3833 18.6139 32.1497 18.7846 31.8613 18.9205C31.5763 19.0563 31.2283 19.1243 30.8173 19.1243ZM31.4885 17.4389C31.8298 17.4389 32.1182 17.3461 32.3535 17.1605C32.5922 16.9716 32.7744 16.7081 32.9004 16.37C33.0297 16.032 33.0943 15.6359 33.0943 15.1818C33.0943 14.7277 33.0313 14.3333 32.9054 13.9986C32.7794 13.6638 32.5971 13.4053 32.3585 13.223C32.1199 13.0407 31.8298 12.9496 31.4885 12.9496C31.1404 12.9496 30.8471 13.044 30.6085 13.233C30.3699 13.4219 30.1892 13.6837 30.0666 14.0185C29.944 14.3532 29.8826 14.741 29.8826 15.1818C29.8826 15.6259 29.944 16.0187 30.0666 16.3601C30.1925 16.6982 30.3732 16.9633 30.6085 17.1555C30.8471 17.3445 31.1404 17.4389 31.4885 17.4389ZM39.7177 19.1243C39.1377 19.1243 38.6123 18.9751 38.1417 18.6768C37.6744 18.3752 37.3031 17.9328 37.0281 17.3494C36.7563 16.7628 36.6204 16.0436 36.6204 15.1918C36.6204 14.3168 36.7612 13.5893 37.043 13.0092C37.3247 12.4259 37.6992 11.9901 38.1665 11.7017C38.6372 11.41 39.1526 11.2642 39.7127 11.2642C40.1403 11.2642 40.4966 11.3371 40.7816 11.483C41.07 11.6255 41.302 11.8045 41.4776 12.0199C41.6566 12.232 41.7925 12.4408 41.8853 12.6463H41.9499V8.81818H44.0629V19H41.9748V17.777H41.8853C41.7859 17.9891 41.645 18.1996 41.4627 18.4084C41.2837 18.6139 41.0501 18.7846 40.7617 18.9205C40.4767 19.0563 40.1287 19.1243 39.7177 19.1243ZM40.3888 17.4389C40.7302 17.4389 41.0186 17.3461 41.2539 17.1605C41.4925 16.9716 41.6748 16.7081 41.8008 16.37C41.93 16.032 41.9947 15.6359 41.9947 15.1818C41.9947 14.7277 41.9317 14.3333 41.8058 13.9986C41.6798 13.6638 41.4975 13.4053 41.2589 13.223C41.0202 13.0407 40.7302 12.9496 40.3888 12.9496C40.0408 12.9496 39.7475 13.044 39.5089 13.233C39.2702 13.4219 39.0896 13.6837 38.967 14.0185C38.8443 14.3532 38.783 14.741 38.783 15.1818C38.783 15.6259 38.8443 16.0187 38.967 16.3601C39.0929 16.6982 39.2736 16.9633 39.5089 17.1555C39.7475 17.3445 40.0408 17.4389 40.3888 17.4389Z" fill="white"/>
</svg>
