<svg width="152" height="47" viewBox="0 0 152 47" fill="none" xmlns="http://www.w3.org/2000/svg">
<rect x="1" y="1" width="150" height="45" rx="14" fill="#054A5B" stroke="#CCCCCC" stroke-width="2"/>
<path d="M45.5745 30V16.1818H48.4961V27.5913H54.4201V30H45.5745ZM68.5149 23.0909C68.5149 24.5978 68.2292 25.8797 67.658 26.9368C67.0912 27.9938 66.3175 28.8013 65.337 29.359C64.3609 29.9123 63.2633 30.1889 62.0443 30.1889C60.8164 30.1889 59.7143 29.91 58.7382 29.3523C57.7622 28.7945 56.9907 27.9871 56.424 26.93C55.8572 25.873 55.5738 24.5933 55.5738 23.0909C55.5738 21.584 55.8572 20.3021 56.424 19.245C56.9907 18.188 57.7622 17.3828 58.7382 16.8295C59.7143 16.2718 60.8164 15.9929 62.0443 15.9929C63.2633 15.9929 64.3609 16.2718 65.337 16.8295C66.3175 17.3828 67.0912 18.188 67.658 19.245C68.2292 20.3021 68.5149 21.584 68.5149 23.0909ZM65.5529 23.0909C65.5529 22.1148 65.4067 21.2917 65.1143 20.6214C64.8264 19.9512 64.4193 19.4429 63.8931 19.0966C63.3668 18.7502 62.7506 18.5771 62.0443 18.5771C61.3381 18.5771 60.7219 18.7502 60.1956 19.0966C59.6693 19.4429 59.26 19.9512 58.9676 20.6214C58.6798 21.2917 58.5358 22.1148 58.5358 23.0909C58.5358 24.067 58.6798 24.8902 58.9676 25.5604C59.26 26.2306 59.6693 26.7389 60.1956 27.0852C60.7219 27.4316 61.3381 27.6048 62.0443 27.6048C62.7506 27.6048 63.3668 27.4316 63.8931 27.0852C64.4193 26.7389 64.8264 26.2306 65.1143 25.5604C65.4067 24.8902 65.5529 24.067 65.5529 23.0909ZM79.8417 20.6484C79.7472 20.3201 79.6145 20.0299 79.4436 19.7781C79.2727 19.5217 79.0635 19.3058 78.8161 19.1303C78.5732 18.9504 78.2943 18.8132 77.9795 18.7188C77.6691 18.6243 77.325 18.5771 76.9471 18.5771C76.2409 18.5771 75.6202 18.7525 75.0849 19.1033C74.5541 19.4542 74.1403 19.9647 73.8434 20.6349C73.5466 21.3007 73.3981 22.1148 73.3981 23.0774C73.3981 24.04 73.5443 24.8587 73.8367 25.5334C74.1291 26.2081 74.5429 26.7231 75.0782 27.0785C75.6134 27.4293 76.2454 27.6048 76.9741 27.6048C77.6353 27.6048 78.1999 27.4878 78.6677 27.2539C79.14 27.0155 79.4998 26.6804 79.7472 26.2486C79.9991 25.8168 80.125 25.3062 80.125 24.717L80.7188 24.8047H77.1563V22.6051H82.9386V24.3459C82.9386 25.5604 82.6822 26.6039 82.1694 27.4766C81.6567 28.3447 80.9505 29.0149 80.0508 29.4872C79.1512 29.955 78.1211 30.1889 76.9606 30.1889C75.6652 30.1889 74.5272 29.9033 73.5466 29.332C72.566 28.7563 71.8013 27.9399 71.2525 26.8828C70.7083 25.8213 70.4361 24.5618 70.4361 23.1044C70.4361 21.9844 70.5981 20.9858 70.9219 20.1087C71.2503 19.227 71.7091 18.4804 72.2983 17.8686C72.8876 17.2569 73.5736 16.7913 74.3562 16.4719C75.1389 16.1526 75.9868 15.9929 76.8999 15.9929C77.6826 15.9929 78.4113 16.1076 79.086 16.337C79.7607 16.5619 80.3589 16.8813 80.8807 17.2951C81.407 17.7089 81.8366 18.2015 82.1694 18.7727C82.5023 19.3395 82.716 19.9647 82.8104 20.6484H79.8417ZM92.4521 16.1818V30H89.5306V16.1818H92.4521ZM106.414 16.1818V30H103.89L97.8785 21.3029H97.7773V30H94.8558V16.1818H97.4197L103.384 24.8722H103.506V16.1818H106.414Z" fill="white"/>
</svg>
