<svg width="230" height="63" viewBox="0 0 230 63" fill="none" xmlns="http://www.w3.org/2000/svg">
<g clip-path="url(#clip0_98_1028)">
<path d="M15.5665 18.0001V36.0003L0 27.0002L15.5665 18.0001Z" fill="#A9DEEC"/>
<path d="M31.1329 44.9999V63L15.5665 53.9999L31.1329 44.9999Z" fill="#A9DEEC"/>
<path d="M15.5665 18.0001L0 27.0002V9.00006L15.5665 18.0001Z" fill="#B0D46D"/>
<path d="M31.1329 44.9999L15.5665 53.9999V36.0003L31.1329 44.9999Z" fill="#48BFD2"/>
<path d="M15.5665 53.9999L0 63L1.45901e-06 44.9999L15.5665 53.9999Z" fill="#0090B8"/>
<path d="M31.1329 9.00006V27.0002L15.5665 18.0001L31.1329 9.00006Z" fill="#0090B8"/>
<path d="M46.6993 35.9998V53.9999L31.1328 44.9999L46.6993 35.9998Z" fill="#0090B8"/>
<path d="M31.1329 27.0002L15.5665 36.0003V18.0001L31.1329 27.0002Z" fill="#A9DEEC"/>
<path d="M46.6993 53.9999L31.1328 63V44.9999L46.6993 53.9999Z" fill="#A9DEEC"/>
<path d="M15.5665 0V18.0001L0 9.00006L15.5665 0Z" fill="#B0D46D"/>
<path d="M31.1329 27.0002V44.9999L15.5665 36.0003L31.1329 27.0002Z" fill="#48BFD2"/>
<path d="M15.5665 36.0003V53.9999L0 44.9999L15.5665 36.0003Z" fill="#0090B8"/>
<path d="M31.1329 9.00006L15.5665 18.0001V0L31.1329 9.00006Z" fill="#0090B8"/>
<path d="M46.6993 35.9998L31.1328 44.9999V27.0002L46.6993 35.9998Z" fill="#0090B8"/>
<path d="M61.0354 8.71542V24.6522H57.6672V8.71542H61.0354Z" fill="#333333"/>
<path d="M67.0582 17.742V24.6522H63.7444V12.6996H66.9025V14.8084H67.0426C67.3071 14.1132 67.7505 13.5634 68.3727 13.1587C68.9951 12.7489 69.7496 12.544 70.6363 12.544C71.4661 12.544 72.1895 12.7255 72.8065 13.0887C73.4237 13.4518 73.9034 13.9707 74.2457 14.645C74.5879 15.3142 74.7591 16.1132 74.7591 17.0418V24.6522H71.4453V17.6332C71.4505 16.9017 71.2637 16.331 70.8852 15.9212C70.5067 15.5062 69.9855 15.2987 69.3217 15.2987C68.8757 15.2987 68.4817 15.3946 68.1394 15.5866C67.8022 15.7785 67.5379 16.0587 67.3459 16.427C67.1592 16.7902 67.0634 17.2284 67.0582 17.742Z" fill="#333333"/>
<path d="M83.7258 12.6996V15.1897H76.5305V12.6996H83.7258ZM78.1641 9.83597H81.4777V20.9793C81.4777 21.2854 81.5244 21.5239 81.6178 21.6951C81.7111 21.8611 81.8408 21.9778 82.0067 22.0453C82.1778 22.1127 82.375 22.1466 82.5979 22.1466C82.7535 22.1466 82.909 22.1335 83.0646 22.1075C83.2202 22.0764 83.3395 22.0531 83.4224 22.0375L83.9436 24.5043C83.7777 24.5562 83.5443 24.6159 83.2435 24.6833C82.9427 24.756 82.5772 24.8001 82.1468 24.8156C81.3482 24.8467 80.6481 24.7404 80.0465 24.4966C79.4501 24.2527 78.986 23.874 78.654 23.3604C78.3222 22.8468 78.1589 22.1983 78.1641 21.4151V9.83597Z" fill="#333333"/>
<path d="M91.2012 24.8857C89.9722 24.8857 88.9144 24.6366 88.0275 24.1386C87.146 23.6354 86.4666 22.9246 85.9895 22.0064C85.5124 21.0829 85.2739 19.991 85.2739 18.7303C85.2739 17.5009 85.5124 16.4218 85.9895 15.4932C86.4666 14.5646 87.1382 13.841 88.0042 13.3221C88.8755 12.8034 89.8971 12.544 91.069 12.544C91.8573 12.544 92.5911 12.6711 93.2704 12.9253C93.9549 13.1743 94.5513 13.5504 95.0595 14.0537C95.5729 14.5568 95.9722 15.1897 96.2574 15.9523C96.5426 16.7098 96.6852 17.5969 96.6852 18.6136V19.5241H86.5963V17.4698H93.566C93.566 16.9925 93.4622 16.5697 93.2548 16.2013C93.0474 15.833 92.7596 15.5451 92.3913 15.3376C92.0284 15.1249 91.6058 15.0185 91.1235 15.0185C90.6205 15.0185 90.1744 15.1352 89.7855 15.3687C89.4017 15.597 89.101 15.9056 88.8832 16.2947C88.6653 16.6786 88.5539 17.1066 88.5487 17.5786V19.5319C88.5487 20.1233 88.6577 20.6343 88.8755 21.0649C89.0984 21.4955 89.4121 21.8274 89.8167 22.061C90.2211 22.2943 90.7008 22.411 91.2557 22.411C91.6238 22.411 91.9609 22.3592 92.2669 22.2554C92.5729 22.1516 92.8348 21.996 93.0526 21.7886C93.2704 21.5811 93.4363 21.3269 93.5504 21.026L96.6153 21.2283C96.4596 21.965 96.1407 22.6082 95.6584 23.1581C95.1813 23.7028 94.5643 24.1282 93.8071 24.4343C93.0552 24.7352 92.1865 24.8857 91.2012 24.8857Z" fill="#333333"/>
<path d="M102.161 8.71542V24.6522H98.8477V8.71542H102.161Z" fill="#333333"/>
<path d="M108.13 8.71542V24.6522H104.816V8.71542H108.13Z" fill="#333333"/>
<path d="M110.784 24.6522V12.6996H114.098V24.6522H110.784ZM112.449 11.1588C111.956 11.1588 111.533 10.9954 111.181 10.6686C110.833 10.3366 110.66 9.93973 110.66 9.47801C110.66 9.02149 110.833 8.62982 111.181 8.30299C111.533 7.97098 111.956 7.80496 112.449 7.80496C112.941 7.80496 113.361 7.97098 113.709 8.30299C114.061 8.62982 114.238 9.02149 114.238 9.47801C114.238 9.93973 114.061 10.3366 113.709 10.6686C113.361 10.9954 112.941 11.1588 112.449 11.1588Z" fill="#333333"/>
<path d="M122.135 29.3833C121.062 29.3833 120.141 29.2356 119.374 28.9399C118.611 28.6494 118.005 28.2525 117.553 27.7493C117.102 27.246 116.809 26.6806 116.675 26.0528L119.739 25.6405C119.833 25.879 119.98 26.1021 120.183 26.3096C120.385 26.5171 120.652 26.6832 120.984 26.8077C121.321 26.9374 121.731 27.0022 122.213 27.0022C122.934 27.0022 123.527 26.8258 123.994 26.473C124.466 26.1256 124.702 25.5418 124.702 24.7222V22.5355H124.562C124.417 22.8676 124.199 23.1814 123.909 23.4771C123.618 23.7729 123.245 24.0141 122.789 24.2009C122.332 24.3876 121.788 24.481 121.155 24.481C120.258 24.481 119.441 24.2735 118.705 23.8585C117.973 23.4382 117.39 22.7975 116.954 21.9363C116.524 21.0701 116.309 19.9754 116.309 18.6525C116.309 17.2986 116.529 16.1676 116.97 15.2597C117.411 14.3519 117.997 13.6723 118.728 13.221C119.464 12.7696 120.271 12.544 121.147 12.544C121.816 12.544 122.376 12.6581 122.827 12.8864C123.279 13.1094 123.642 13.3896 123.916 13.7267C124.196 14.0589 124.412 14.3856 124.562 14.7072H124.686V12.6996H127.977V24.7689C127.977 25.7858 127.728 26.6365 127.23 27.3213C126.732 28.0061 126.043 28.5197 125.161 28.8621C124.285 29.2097 123.276 29.3833 122.135 29.3833ZM122.205 21.9908C122.739 21.9908 123.19 21.8585 123.559 21.5939C123.932 21.3243 124.217 20.9404 124.414 20.4423C124.616 19.9391 124.718 19.3373 124.718 18.637C124.718 17.9366 124.619 17.3297 124.422 16.8161C124.225 16.2973 123.94 15.8953 123.566 15.6099C123.193 15.3246 122.739 15.1819 122.205 15.1819C121.661 15.1819 121.202 15.3298 120.828 15.6255C120.455 15.916 120.172 16.3207 119.98 16.8395C119.789 17.3581 119.693 17.9573 119.693 18.637C119.693 19.3269 119.789 19.9235 119.98 20.4268C120.177 20.9248 120.46 21.3113 120.828 21.5863C121.202 21.8559 121.661 21.9908 122.205 21.9908Z" fill="#333333"/>
<path d="M136.059 24.8857C134.83 24.8857 133.772 24.6366 132.885 24.1386C132.004 23.6354 131.324 22.9246 130.847 22.0064C130.37 21.0829 130.132 19.991 130.132 18.7303C130.132 17.5009 130.37 16.4218 130.847 15.4932C131.324 14.5646 131.996 13.841 132.862 13.3221C133.733 12.8034 134.755 12.544 135.927 12.544C136.715 12.544 137.448 12.6711 138.129 12.9253C138.813 13.1743 139.409 13.5504 139.917 14.0537C140.43 14.5568 140.83 15.1897 141.115 15.9523C141.401 16.7098 141.543 17.5969 141.543 18.6136V19.5241H131.454V17.4698H138.423C138.423 16.9925 138.32 16.5697 138.112 16.2013C137.906 15.833 137.617 15.5451 137.248 15.3376C136.886 15.1249 136.463 15.0185 135.981 15.0185C135.478 15.0185 135.032 15.1352 134.643 15.3687C134.259 15.597 133.959 15.9056 133.741 16.2947C133.523 16.6786 133.412 17.1066 133.406 17.5786V19.5319C133.406 20.1233 133.515 20.6343 133.733 21.0649C133.956 21.4955 134.27 21.8274 134.674 22.061C135.079 22.2943 135.558 22.411 136.113 22.411C136.482 22.411 136.819 22.3592 137.125 22.2554C137.431 22.1516 137.692 21.996 137.91 21.7886C138.129 21.5811 138.294 21.3269 138.408 21.026L141.473 21.2283C141.317 21.965 140.998 22.6082 140.516 23.1581C140.039 23.7028 139.423 24.1282 138.665 24.4343C137.912 24.7352 137.044 24.8857 136.059 24.8857Z" fill="#333333"/>
<path d="M147.019 17.742V24.6522H143.705V12.6996H146.863V14.8084H147.003C147.268 14.1132 147.712 13.5634 148.334 13.1587C148.956 12.7489 149.711 12.544 150.597 12.544C151.428 12.544 152.15 12.7255 152.768 13.0887C153.384 13.4518 153.865 13.9707 154.207 14.645C154.549 15.3142 154.72 16.1132 154.72 17.0418V24.6522H151.406V17.6332C151.411 16.9017 151.225 16.331 150.846 15.9212C150.468 15.5062 149.946 15.2987 149.282 15.2987C148.836 15.2987 148.443 15.3946 148.101 15.5866C147.763 15.7785 147.498 16.0587 147.307 16.427C147.121 16.7902 147.025 17.2284 147.019 17.742Z" fill="#333333"/>
<path d="M163.687 12.6996V15.1897H156.492V12.6996H163.687ZM158.125 9.83597H161.439V20.9793C161.439 21.2854 161.486 21.5239 161.579 21.6951C161.672 21.8611 161.802 21.9778 161.968 22.0453C162.139 22.1127 162.336 22.1466 162.559 22.1466C162.714 22.1466 162.87 22.1335 163.026 22.1075C163.181 22.0764 163.3 22.0531 163.383 22.0375L163.905 24.5043C163.738 24.5562 163.505 24.6159 163.204 24.6833C162.904 24.756 162.539 24.8001 162.108 24.8156C161.309 24.8467 160.608 24.7404 160.007 24.4966C159.411 24.2527 158.946 23.874 158.615 23.3604C158.284 22.8468 158.119 22.1983 158.125 21.4151V9.83597Z" fill="#333333"/>
<path d="M58.2118 54.7826V38.8458H63.5946C64.8444 38.8458 65.866 39.0715 66.6595 39.5229C67.4581 39.969 68.0492 40.5734 68.433 41.3359C68.8167 42.0985 69.0086 42.9493 69.0086 43.8884C69.0086 44.8274 68.8167 45.6807 68.433 46.4485C68.0544 47.2163 67.4685 47.8284 66.675 48.285C65.8816 48.7362 64.8652 48.962 63.6258 48.962H59.7676V47.25H63.5635C64.4192 47.25 65.1063 47.1021 65.6249 46.8064C66.1435 46.5107 66.5194 46.1113 66.7529 45.608C66.9914 45.0996 67.1106 44.5265 67.1106 43.8884C67.1106 43.2502 66.9914 42.6796 66.7529 42.1764C66.5194 41.6731 66.1409 41.279 65.6171 40.9935C65.0933 40.7031 64.3985 40.5578 63.5325 40.5578H60.1409V54.7826H58.2118Z" fill="#333333"/>
<path d="M71.8673 54.7826V42.83H73.6408V44.6354H73.7652C73.983 44.044 74.3772 43.5641 74.9477 43.1958C75.518 42.8274 76.1611 42.6433 76.8768 42.6433C77.0115 42.6433 77.18 42.6459 77.3824 42.651C77.5846 42.6562 77.7375 42.664 77.8413 42.6744V44.542C77.779 44.5265 77.6365 44.5031 77.4135 44.472C77.1956 44.4357 76.9648 44.4175 76.7211 44.4175C76.1404 44.4175 75.6218 44.5393 75.1655 44.7833C74.7142 45.0218 74.3564 45.3538 74.092 45.7792C73.8327 46.1995 73.7031 46.6793 73.7031 47.2189V54.7826H71.8673Z" fill="#333333"/>
<path d="M84.5076 55.0316C83.429 55.0316 82.4827 54.7748 81.6685 54.2612C80.8594 53.7476 80.2268 53.0292 79.7705 52.1058C79.3192 51.1823 79.0938 50.1032 79.0938 48.8686C79.0938 47.6235 79.3192 46.5367 79.7705 45.608C80.2268 44.6795 80.8594 43.9584 81.6685 43.4448C82.4827 42.9312 83.429 42.6744 84.5076 42.6744C85.5863 42.6744 86.5301 42.9312 87.3391 43.4448C88.1533 43.9584 88.7859 44.6795 89.2372 45.608C89.6935 46.5367 89.9217 47.6235 89.9217 48.8686C89.9217 50.1032 89.6935 51.1823 89.2372 52.1058C88.7859 53.0292 88.1533 53.7476 87.3391 54.2612C86.5301 54.7748 85.5863 55.0316 84.5076 55.0316ZM84.5076 53.382C85.327 53.382 86.0011 53.1719 86.5301 52.7515C87.0591 52.3314 87.4506 51.7789 87.7046 51.0941C87.9589 50.4093 88.0859 49.6674 88.0859 48.8686C88.0859 48.0697 87.9589 47.3252 87.7046 46.6352C87.4506 45.9452 87.0591 45.3877 86.5301 44.9621C86.0011 44.5368 85.327 44.3241 84.5076 44.3241C83.6883 44.3241 83.0142 44.5368 82.4852 44.9621C81.9563 45.3877 81.5647 45.9452 81.3107 46.6352C81.0566 47.3252 80.9295 48.0697 80.9295 48.8686C80.9295 49.6674 81.0566 50.4093 81.3107 51.0941C81.5647 51.7789 81.9563 52.3314 82.4852 52.7515C83.0142 53.1719 83.6883 53.382 84.5076 53.382Z" fill="#333333"/>
<path d="M92.7239 42.83H94.5596V55.6542C94.5596 56.3907 94.4326 57.029 94.1785 57.5684C93.9296 58.1079 93.5511 58.5256 93.0429 58.8213C92.5399 59.117 91.9046 59.2648 91.137 59.2648C91.0749 59.2648 91.0126 59.2648 90.9504 59.2648C90.8881 59.2648 90.826 59.2648 90.7637 59.2648V57.5528C90.826 57.5528 90.8829 57.5528 90.9348 57.5528C90.9867 57.5528 91.0438 57.5528 91.1059 57.5528C91.666 57.5528 92.0758 57.3868 92.3349 57.0548C92.5942 56.7281 92.7239 56.261 92.7239 55.6542V42.83ZM93.6262 40.838C93.2685 40.838 92.9599 40.7161 92.7006 40.4722C92.4465 40.2284 92.3195 39.9353 92.3195 39.5929C92.3195 39.2505 92.4465 38.9574 92.7006 38.7135C92.9599 38.4697 93.2685 38.3478 93.6262 38.3478C93.9841 38.3478 94.2901 38.4697 94.5442 38.7135C94.8035 38.9574 94.9331 39.2505 94.9331 39.5929C94.9331 39.9353 94.8035 40.2284 94.5442 40.4722C94.2901 40.7161 93.9841 40.838 93.6262 40.838Z" fill="#333333"/>
<path d="M102.931 55.0316C101.78 55.0316 100.787 54.7774 99.9522 54.269C99.1224 53.7554 98.482 53.0396 98.0309 52.1213C97.5848 51.1979 97.3618 50.124 97.3618 48.8996C97.3618 47.6754 97.5848 46.5963 98.0309 45.6625C98.482 44.7236 99.1094 43.9921 99.9133 43.4681C100.722 42.939 101.666 42.6744 102.745 42.6744C103.367 42.6744 103.981 42.7781 104.588 42.9857C105.195 43.1932 105.747 43.5304 106.245 43.9973C106.743 44.459 107.14 45.0712 107.435 45.8337C107.731 46.5963 107.879 47.5353 107.879 48.6507V49.4288H98.6687V47.8414H106.012C106.012 47.167 105.877 46.5652 105.607 46.036C105.343 45.507 104.964 45.0892 104.472 44.7833C103.984 44.4772 103.408 44.3241 102.745 44.3241C102.013 44.3241 101.381 44.5057 100.847 44.8689C100.318 45.2267 99.9107 45.6936 99.6254 46.2695C99.3402 46.8453 99.1976 47.4627 99.1976 48.1216V49.1799C99.1976 50.0825 99.3532 50.8477 99.6643 51.4754C99.9807 52.098 100.419 52.5727 100.979 52.8995C101.539 53.221 102.19 53.382 102.931 53.382C103.414 53.382 103.849 53.3144 104.238 53.1795C104.632 53.0396 104.972 52.8321 105.257 52.5571C105.542 52.277 105.763 51.9294 105.918 51.5143L107.692 52.0124C107.505 52.6142 107.191 53.1432 106.751 53.5999C106.31 54.0511 105.765 54.4039 105.117 54.6581C104.469 54.9071 103.74 55.0316 102.931 55.0316Z" fill="#333333"/>
<path d="M115.525 55.0316C114.405 55.0316 113.44 54.767 112.631 54.2379C111.822 53.7087 111.2 52.9799 110.765 52.0513C110.329 51.1226 110.111 50.0617 110.111 48.8686C110.111 47.6547 110.334 46.5834 110.78 45.6547C111.231 44.721 111.859 43.9921 112.663 43.4681C113.472 42.939 114.415 42.6744 115.494 42.6744C116.334 42.6744 117.091 42.83 117.765 43.1413C118.44 43.4526 118.992 43.8884 119.422 44.4486C119.853 45.0088 120.12 45.6625 120.223 46.4096H118.388C118.248 45.8648 117.936 45.3825 117.454 44.9621C116.977 44.5368 116.334 44.3241 115.525 44.3241C114.809 44.3241 114.182 44.5109 113.643 44.8844C113.108 45.2528 112.691 45.774 112.39 46.4485C112.095 47.1177 111.947 47.9037 111.947 48.8064C111.947 49.7297 112.092 50.5338 112.382 51.2186C112.678 51.9034 113.093 52.4352 113.627 52.8139C114.166 53.1925 114.799 53.382 115.525 53.382C116.002 53.382 116.435 53.299 116.824 53.133C117.213 52.9668 117.542 52.7283 117.812 52.417C118.082 52.1058 118.273 51.7322 118.388 51.2964H120.223C120.12 52.002 119.863 52.6375 119.453 53.203C119.049 53.7632 118.512 54.2093 117.843 54.5414C117.179 54.8682 116.407 55.0316 115.525 55.0316Z" fill="#333333"/>
<path d="M128.103 42.83V44.3864H121.911V42.83H128.103ZM123.716 39.9664H125.552V51.3587C125.552 51.8775 125.627 52.2666 125.777 52.526C125.933 52.7802 126.13 52.9514 126.369 53.0396C126.612 53.1226 126.869 53.1641 127.139 53.1641C127.341 53.1641 127.507 53.1536 127.637 53.133C127.766 53.1069 127.87 53.0863 127.948 53.0707L128.321 54.7203C128.197 54.767 128.023 54.8137 127.8 54.8604C127.577 54.9123 127.294 54.9382 126.952 54.9382C126.433 54.9382 125.925 54.8267 125.427 54.6036C124.935 54.3805 124.525 54.0407 124.198 53.5842C123.877 53.1278 123.716 52.5519 123.716 51.8567V39.9664Z" fill="#333333"/>
<path d="M145.987 42.83C145.893 42.0415 145.515 41.4293 144.851 40.9936C144.187 40.5578 143.372 40.3399 142.408 40.3399C141.703 40.3399 141.086 40.4541 140.557 40.6822C140.033 40.9106 139.624 41.2245 139.328 41.6238C139.038 42.0233 138.893 42.4773 138.893 42.9857C138.893 43.4111 138.994 43.7768 139.195 44.0829C139.403 44.3838 139.667 44.6354 139.989 44.8376C140.311 45.0349 140.648 45.1983 141.001 45.3279C141.353 45.4524 141.677 45.5537 141.973 45.6314L143.591 46.0672C144.006 46.1761 144.467 46.3266 144.975 46.5185C145.489 46.7105 145.979 46.9724 146.446 47.3045C146.917 47.6313 147.307 48.0515 147.612 48.5651C147.919 49.0786 148.071 49.7091 148.071 50.456C148.071 51.3172 147.846 52.0954 147.394 52.7906C146.948 53.4856 146.295 54.0381 145.434 54.448C144.578 54.8578 143.539 55.0627 142.315 55.0627C141.173 55.0627 140.186 54.8786 139.351 54.5102C138.522 54.1419 137.869 53.6283 137.391 52.9694C136.918 52.3107 136.652 51.5455 136.59 50.6739H138.58C138.632 51.2757 138.835 51.7737 139.188 52.168C139.546 52.5571 139.997 52.8475 140.541 53.0396C141.091 53.2262 141.683 53.3196 142.315 53.3196C143.052 53.3196 143.713 53.2003 144.299 52.9618C144.885 52.7179 145.349 52.3807 145.691 51.9501C146.034 51.5143 146.205 51.0059 146.205 50.4249C146.205 49.8957 146.057 49.4651 145.761 49.1331C145.465 48.8012 145.077 48.5314 144.595 48.3239C144.111 48.1164 143.591 47.9348 143.03 47.7792L141.071 47.2189C139.826 46.8609 138.841 46.3499 138.115 45.686C137.388 45.0219 137.025 44.1529 137.025 43.079C137.025 42.1867 137.266 41.4085 137.749 40.7446C138.237 40.0754 138.89 39.5566 139.709 39.1882C140.534 38.8147 141.454 38.6279 142.47 38.6279C143.497 38.6279 144.41 38.8121 145.208 39.1805C146.008 39.5436 146.64 40.0416 147.107 40.6746C147.578 41.3075 147.827 42.0259 147.853 42.83H145.987Z" fill="#333333"/>
<path d="M155.848 55.0316C154.769 55.0316 153.823 54.7748 153.009 54.2612C152.2 53.7476 151.567 53.0292 151.11 52.1058C150.66 51.1823 150.434 50.1032 150.434 48.8686C150.434 47.6235 150.66 46.5367 151.11 45.608C151.567 44.6795 152.2 43.9584 153.009 43.4448C153.823 42.9312 154.769 42.6744 155.848 42.6744C156.927 42.6744 157.87 42.9312 158.679 43.4448C159.494 43.9584 160.127 44.6795 160.577 45.608C161.034 46.5367 161.262 47.6235 161.262 48.8686C161.262 50.1032 161.034 51.1823 160.577 52.1058C160.127 53.0292 159.494 53.7476 158.679 54.2612C157.87 54.7748 156.927 55.0316 155.848 55.0316ZM155.848 53.382C156.667 53.382 157.342 53.1719 157.87 52.7515C158.399 52.3314 158.79 51.7789 159.045 51.0941C159.3 50.4093 159.426 49.6674 159.426 48.8686C159.426 48.0697 159.3 47.3252 159.045 46.6352C158.79 45.9452 158.399 45.3877 157.87 44.9621C157.342 44.5368 156.667 44.3241 155.848 44.3241C155.028 44.3241 154.355 44.5368 153.825 44.9621C153.296 45.3877 152.905 45.9452 152.65 46.6352C152.397 47.3252 152.27 48.0697 152.27 48.8686C152.27 49.6674 152.397 50.4093 152.65 51.0941C152.905 51.7789 153.296 52.3314 153.825 52.7515C154.355 53.1719 155.028 53.382 155.848 53.382Z" fill="#333333"/>
<path d="M165.9 38.8458V54.7826H164.064V38.8458H165.9Z" fill="#333333"/>
<path d="M176.792 49.8957V42.83H178.628V54.7826H176.792V52.7594H176.667C176.388 53.3663 175.951 53.8825 175.361 54.3079C174.77 54.7281 174.022 54.9382 173.12 54.9382C172.374 54.9382 171.71 54.7748 171.13 54.448C170.548 54.116 170.092 53.6179 169.761 52.954C169.428 52.2847 169.262 51.4417 169.262 50.4249V42.83H171.098V50.3004C171.098 51.1719 171.342 51.8671 171.829 52.3859C172.322 52.9047 172.949 53.1641 173.712 53.1641C174.168 53.1641 174.632 53.0474 175.104 52.8139C175.582 52.5803 175.98 52.2225 176.302 51.74C176.629 51.2575 176.792 50.6428 176.792 49.8957Z" fill="#333333"/>
<path d="M187.186 42.83V44.3864H180.995V42.83H187.186ZM182.799 39.9664H184.635V51.3587C184.635 51.8775 184.711 52.2666 184.86 52.526C185.016 52.7802 185.213 52.9514 185.451 53.0396C185.695 53.1226 185.952 53.1641 186.222 53.1641C186.423 53.1641 186.59 53.1536 186.719 53.133C186.849 53.1069 186.953 53.0863 187.031 53.0707L187.404 54.7203C187.28 54.767 187.106 54.8137 186.883 54.8604C186.66 54.9123 186.377 54.9382 186.034 54.9382C185.517 54.9382 185.008 54.8267 184.511 54.6036C184.018 54.3805 183.609 54.0407 183.281 53.5842C182.96 53.1278 182.799 52.5519 182.799 51.8567V39.9664Z" fill="#333333"/>
<path d="M189.947 54.7826V42.83H191.783V54.7826H189.947ZM190.881 40.838C190.523 40.838 190.214 40.7161 189.955 40.4722C189.701 40.2284 189.575 39.9353 189.575 39.5929C189.575 39.2505 189.701 38.9574 189.955 38.7135C190.214 38.4697 190.523 38.3478 190.881 38.3478C191.239 38.3478 191.545 38.4697 191.799 38.7135C192.058 38.9574 192.188 39.2505 192.188 39.5929C192.188 39.9353 192.058 40.2284 191.799 40.4722C191.545 40.7161 191.239 40.838 190.881 40.838Z" fill="#333333"/>
<path d="M200 55.0316C198.921 55.0316 197.975 54.7748 197.161 54.2612C196.352 53.7476 195.719 53.0292 195.262 52.1058C194.811 51.1823 194.585 50.1032 194.585 48.8686C194.585 47.6235 194.811 46.5367 195.262 45.608C195.719 44.6795 196.352 43.9584 197.161 43.4448C197.975 42.9312 198.921 42.6744 200 42.6744C201.079 42.6744 202.022 42.9312 202.831 43.4448C203.646 43.9584 204.278 44.6795 204.729 45.608C205.186 46.5367 205.413 47.6235 205.413 48.8686C205.413 50.1032 205.186 51.1823 204.729 52.1058C204.278 53.0292 203.646 53.7476 202.831 54.2612C202.022 54.7748 201.079 55.0316 200 55.0316ZM200 53.382C200.819 53.382 201.494 53.1719 202.022 52.7515C202.551 52.3314 202.942 51.7789 203.197 51.0941C203.451 50.4093 203.577 49.6674 203.577 48.8686C203.577 48.0697 203.451 47.3252 203.197 46.6352C202.942 45.9452 202.551 45.3877 202.022 44.9621C201.494 44.5368 200.819 44.3241 200 44.3241C199.18 44.3241 198.506 44.5368 197.977 44.9621C197.448 45.3877 197.057 45.9452 196.802 46.6352C196.549 47.3252 196.421 48.0697 196.421 48.8686C196.421 49.6674 196.549 50.4093 196.802 51.0941C197.057 51.7789 197.448 52.3314 197.977 52.7515C198.506 53.1719 199.18 53.382 200 53.382Z" fill="#333333"/>
<path d="M210.052 47.5924V54.7826H208.216V42.83H209.99V44.6977H210.145C210.425 44.0907 210.85 43.603 211.421 43.2347C211.992 42.8612 212.728 42.6744 213.63 42.6744C214.439 42.6744 215.147 42.8404 215.754 43.1724C216.36 43.4993 216.832 43.9973 217.169 44.6665C217.506 45.3306 217.674 46.1709 217.674 47.1877V54.7826H215.839V47.3123C215.839 46.3732 215.595 45.6419 215.107 45.1179C214.62 44.5887 213.952 44.3241 213.1 44.3241C212.515 44.3241 211.992 44.4512 211.53 44.7053C211.073 44.9597 210.713 45.3306 210.449 45.8181C210.184 46.3058 210.052 46.8972 210.052 47.5924Z" fill="#333333"/>
<path d="M229.492 45.507L227.844 45.9738C227.74 45.6988 227.586 45.4316 227.385 45.1724C227.188 44.9078 226.918 44.6899 226.576 44.5187C226.234 44.3475 225.796 44.2619 225.26 44.2619C224.529 44.2619 223.92 44.4305 223.433 44.7677C222.951 45.0997 222.71 45.5224 222.71 46.036C222.71 46.4926 222.876 46.8531 223.207 47.1177C223.54 47.3823 224.058 47.6028 224.763 47.7792L226.536 48.2149C227.606 48.4743 228.401 48.8712 228.925 49.4056C229.448 49.9346 229.71 50.6168 229.71 51.4521C229.71 52.1369 229.513 52.7491 229.12 53.2886C228.73 53.828 228.186 54.2534 227.485 54.5647C226.786 54.876 225.971 55.0316 225.043 55.0316C223.824 55.0316 222.815 54.767 222.017 54.2379C221.219 53.7087 220.712 52.9358 220.5 51.919L222.243 51.4832C222.409 52.1265 222.722 52.609 223.184 52.9306C223.65 53.2523 224.26 53.413 225.013 53.413C225.868 53.413 226.547 53.2314 227.05 52.8684C227.558 52.5 227.812 52.0591 227.812 51.5455C227.812 51.1304 227.667 50.7828 227.377 50.5027C227.087 50.2174 226.64 50.0047 226.039 49.8646L224.047 49.3978C222.954 49.1384 222.15 48.7363 221.637 48.1916C221.127 47.6417 220.874 46.9543 220.874 46.1294C220.874 45.4551 221.063 44.8585 221.442 44.3397C221.825 43.8209 222.347 43.4137 223.006 43.118C223.67 42.8222 224.421 42.6744 225.26 42.6744C226.443 42.6744 227.371 42.9338 228.045 43.4526C228.725 43.9714 229.207 44.6562 229.492 45.507Z" fill="#333333"/>
</g>
<defs>
<clipPath id="clip0_98_1028">
<rect width="230" height="63" fill="white"/>
</clipPath>
</defs>
</svg>
