<svg width="554" height="406" viewBox="0 0 554 406" fill="none" xmlns="http://www.w3.org/2000/svg">
<g clip-path="url(#clip0_98_1012)">
<path d="M100.438 116V232.002L0 174.001L100.438 116Z" fill="#A9DEEC"/>
<path d="M200.874 290V406L100.438 347.999L200.874 290Z" fill="#A9DEEC"/>
<path d="M100.438 116L0 174.001V58.0004L100.438 116Z" fill="#B0D46D"/>
<path d="M200.874 290L100.438 347.999V232.002L200.874 290Z" fill="#48BFD2"/>
<path d="M100.438 347.999L0 406L9.41377e-06 290L100.438 347.999Z" fill="#0090B8"/>
<path d="M200.874 58.0004V174.001L100.438 116L200.874 58.0004Z" fill="#0090B8"/>
<path d="M301.312 231.999V347.999L200.874 290L301.312 231.999Z" fill="#0090B8"/>
<path d="M200.874 174.001L100.438 232.002V116L200.874 174.001Z" fill="#A9DEEC"/>
<path d="M301.312 347.999L200.874 406V290L301.312 347.999Z" fill="#A9DEEC"/>
<path d="M100.438 0V116L0 58.0004L100.438 0Z" fill="#B0D46D"/>
<path d="M200.874 174.001V290L100.438 232.002L200.874 174.001Z" fill="#48BFD2"/>
<path d="M100.438 232.002V347.999L0 290L100.438 232.002Z" fill="#0090B8"/>
<path d="M200.874 58.0004L100.438 116V0L200.874 58.0004Z" fill="#0090B8"/>
<path d="M301.312 231.999L200.874 290V174.001L301.312 231.999Z" fill="#0090B8"/>
</g>
<defs>
<clipPath id="clip0_98_1012">
<rect width="1484" height="406" fill="white"/>
</clipPath>
</defs>
</svg>
