<svg width="227" height="43" viewBox="0 0 227 43" fill="none" xmlns="http://www.w3.org/2000/svg">
<rect x="1.5" y="1.5" width="224" height="40" rx="8.5" fill="#E2F9FF" stroke="#F1F2F2" stroke-width="3"/>
<path d="M66.7897 29H63.8238L68.343 15.9091H71.9097L76.4225 29H73.4566L70.1775 18.9006H70.0752L66.7897 29ZM66.6043 23.8544H73.61V26.0149H66.6043V23.8544ZM81.1079 29.1598C80.3621 29.1598 79.6867 28.968 79.0816 28.5845C78.4807 28.1967 78.0035 27.6278 77.6498 26.8778C77.3003 26.1236 77.1256 25.1989 77.1256 24.1037C77.1256 22.9787 77.3067 22.0433 77.6689 21.2976C78.0312 20.5476 78.5127 19.9872 79.1135 19.6165C79.7187 19.2415 80.3813 19.054 81.1015 19.054C81.6512 19.054 82.1093 19.1477 82.4758 19.3352C82.8465 19.5185 83.1448 19.7486 83.3707 20.0256C83.6008 20.2983 83.7755 20.5668 83.8948 20.831H83.9779V15.9091H86.6945V29H84.0099V27.4276H83.8948C83.767 27.7003 83.5858 27.9709 83.3515 28.2393C83.1214 28.5036 82.8209 28.723 82.4502 28.8977C82.0837 29.0724 81.6363 29.1598 81.1079 29.1598ZM81.9708 26.9929C82.4097 26.9929 82.7805 26.8736 83.083 26.6349C83.3898 26.392 83.6242 26.0533 83.7861 25.6186C83.9523 25.1839 84.0354 24.6747 84.0354 24.0909C84.0354 23.5071 83.9545 23 83.7925 22.5696C83.6306 22.1392 83.3962 21.8068 83.0894 21.5724C82.7826 21.3381 82.4097 21.2209 81.9708 21.2209C81.5233 21.2209 81.1462 21.3423 80.8394 21.5852C80.5326 21.8281 80.3003 22.1648 80.1427 22.5952C79.985 23.0256 79.9062 23.5241 79.9062 24.0909C79.9062 24.6619 79.985 25.1669 80.1427 25.6058C80.3046 26.0405 80.5368 26.3814 80.8394 26.6286C81.1462 26.8714 81.5233 26.9929 81.9708 26.9929ZM92.5512 29.1598C91.8055 29.1598 91.1301 28.968 90.5249 28.5845C89.9241 28.1967 89.4468 27.6278 89.0931 26.8778C88.7437 26.1236 88.569 25.1989 88.569 24.1037C88.569 22.9787 88.7501 22.0433 89.1123 21.2976C89.4745 20.5476 89.9561 19.9872 90.5569 19.6165C91.162 19.2415 91.8247 19.054 92.5448 19.054C93.0945 19.054 93.5526 19.1477 93.9191 19.3352C94.2899 19.5185 94.5882 19.7486 94.814 20.0256C95.0441 20.2983 95.2188 20.5668 95.3382 20.831H95.4213V15.9091H98.1379V29H95.4532V27.4276H95.3382C95.2103 27.7003 95.0292 27.9709 94.7948 28.2393C94.5647 28.5036 94.2643 28.723 93.8936 28.8977C93.5271 29.0724 93.0796 29.1598 92.5512 29.1598ZM93.4142 26.9929C93.8531 26.9929 94.2238 26.8736 94.5264 26.6349C94.8332 26.392 95.0676 26.0533 95.2295 25.6186C95.3957 25.1839 95.4788 24.6747 95.4788 24.0909C95.4788 23.5071 95.3978 23 95.2359 22.5696C95.074 22.1392 94.8396 21.8068 94.5328 21.5724C94.2259 21.3381 93.8531 21.2209 93.4142 21.2209C92.9667 21.2209 92.5896 21.3423 92.2828 21.5852C91.9759 21.8281 91.7437 22.1648 91.586 22.5952C91.4284 23.0256 91.3495 23.5241 91.3495 24.0909C91.3495 24.6619 91.4284 25.1669 91.586 25.6058C91.748 26.0405 91.9802 26.3814 92.2828 26.6286C92.5896 26.8714 92.9667 26.9929 93.4142 26.9929ZM115.543 15.9091V29H113.153L107.457 20.7607H107.362V29H104.594V15.9091H107.023L112.673 24.142H112.788V15.9091H115.543ZM122.253 29.1918C121.244 29.1918 120.374 28.9872 119.646 28.5781C118.921 28.1648 118.363 27.581 117.971 26.8267C117.579 26.0682 117.383 25.1712 117.383 24.1357C117.383 23.1257 117.579 22.2393 117.971 21.4766C118.363 20.7138 118.915 20.1193 119.626 19.6932C120.342 19.267 121.182 19.054 122.145 19.054C122.793 19.054 123.396 19.1584 123.954 19.3672C124.516 19.5717 125.006 19.8807 125.424 20.294C125.846 20.7074 126.174 21.2273 126.408 21.8537C126.643 22.4759 126.76 23.2045 126.76 24.0398V24.7876H118.469V23.1001H124.197C124.197 22.7081 124.111 22.3608 123.941 22.0582C123.771 21.7557 123.534 21.5192 123.231 21.3487C122.933 21.174 122.586 21.0866 122.19 21.0866C121.776 21.0866 121.41 21.1825 121.09 21.3743C120.775 21.5618 120.528 21.8153 120.349 22.1349C120.17 22.4503 120.078 22.8018 120.074 23.1896V24.794C120.074 25.2798 120.163 25.6996 120.342 26.0533C120.525 26.407 120.783 26.6797 121.116 26.8714C121.448 27.0632 121.842 27.1591 122.298 27.1591C122.601 27.1591 122.878 27.1165 123.129 27.0312C123.381 26.946 123.596 26.8182 123.775 26.6477C123.954 26.4773 124.09 26.2685 124.184 26.0213L126.702 26.1875C126.574 26.7926 126.312 27.321 125.916 27.7727C125.524 28.2202 125.017 28.5696 124.395 28.821C123.777 29.0682 123.063 29.1918 122.253 29.1918ZM130.403 29L127.731 19.1818H130.486L132.008 25.7784H132.097L133.682 19.1818H136.386L137.997 25.7401H138.08L139.576 19.1818H142.324L139.659 29H136.776L135.089 22.8253H134.967L133.28 29H130.403ZM153.236 15.9091H155.972V25.0369C155.972 25.8807 155.782 26.6136 155.403 27.2358C155.028 27.858 154.506 28.3374 153.837 28.674C153.168 29.0107 152.39 29.179 151.503 29.179C150.715 29.179 149.999 29.0405 149.356 28.7635C148.717 28.4822 148.209 28.0561 147.834 27.4851C147.459 26.9098 147.274 26.1875 147.278 25.3182H150.033C150.042 25.6634 150.112 25.9595 150.244 26.2067C150.381 26.4496 150.566 26.6371 150.8 26.7692C151.039 26.897 151.32 26.9609 151.644 26.9609C151.985 26.9609 152.273 26.8885 152.507 26.7436C152.746 26.5945 152.927 26.3771 153.05 26.0916C153.174 25.8061 153.236 25.4545 153.236 25.0369V15.9091ZM162.645 29.1918C161.652 29.1918 160.793 28.9808 160.069 28.5589C159.349 28.1328 158.793 27.5405 158.4 26.782C158.008 26.0192 157.812 25.1349 157.812 24.1293C157.812 23.1151 158.008 22.2287 158.4 21.4702C158.793 20.7074 159.349 20.1151 160.069 19.6932C160.793 19.267 161.652 19.054 162.645 19.054C163.638 19.054 164.494 19.267 165.214 19.6932C165.939 20.1151 166.497 20.7074 166.889 21.4702C167.281 22.2287 167.477 23.1151 167.477 24.1293C167.477 25.1349 167.281 26.0192 166.889 26.782C166.497 27.5405 165.939 28.1328 165.214 28.5589C164.494 28.9808 163.638 29.1918 162.645 29.1918ZM162.658 27.0824C163.109 27.0824 163.486 26.9545 163.789 26.6989C164.092 26.4389 164.32 26.0852 164.473 25.6378C164.631 25.1903 164.709 24.6811 164.709 24.1101C164.709 23.5391 164.631 23.0298 164.473 22.5824C164.32 22.1349 164.092 21.7812 163.789 21.5213C163.486 21.2614 163.109 21.1314 162.658 21.1314C162.202 21.1314 161.818 21.2614 161.507 21.5213C161.2 21.7812 160.968 22.1349 160.81 22.5824C160.657 23.0298 160.58 23.5391 160.58 24.1101C160.58 24.6811 160.657 25.1903 160.81 25.6378C160.968 26.0852 161.2 26.4389 161.507 26.6989C161.818 26.9545 162.202 27.0824 162.658 27.0824ZM169.299 29V15.9091H172.022V20.831H172.105C172.224 20.5668 172.397 20.2983 172.623 20.0256C172.853 19.7486 173.151 19.5185 173.518 19.3352C173.888 19.1477 174.349 19.054 174.898 19.054C175.614 19.054 176.275 19.2415 176.88 19.6165C177.485 19.9872 177.969 20.5476 178.331 21.2976C178.693 22.0433 178.874 22.9787 178.874 24.1037C178.874 25.1989 178.697 26.1236 178.344 26.8778C177.994 27.6278 177.517 28.1967 176.912 28.5845C176.311 28.968 175.638 29.1598 174.892 29.1598C174.364 29.1598 173.914 29.0724 173.543 28.8977C173.177 28.723 172.876 28.5036 172.642 28.2393C172.408 27.9709 172.229 27.7003 172.105 27.4276H171.984V29H169.299ZM171.964 24.0909C171.964 24.6747 172.045 25.1839 172.207 25.6186C172.369 26.0533 172.604 26.392 172.91 26.6349C173.217 26.8736 173.59 26.9929 174.029 26.9929C174.472 26.9929 174.847 26.8714 175.154 26.6286C175.461 26.3814 175.693 26.0405 175.851 25.6058C176.013 25.1669 176.094 24.6619 176.094 24.0909C176.094 23.5241 176.015 23.0256 175.857 22.5952C175.699 22.1648 175.467 21.8281 175.16 21.5852C174.854 21.3423 174.476 21.2209 174.029 21.2209C173.586 21.2209 173.211 21.3381 172.904 21.5724C172.601 21.8068 172.369 22.1392 172.207 22.5696C172.045 23 171.964 23.5071 171.964 24.0909Z" fill="#333333"/>
</svg>
