<svg width="82" height="32" viewBox="0 0 82 32" fill="none" xmlns="http://www.w3.org/2000/svg">
<path d="M15.8877 1H65.8184C74.0337 1 80.7061 7.70905 80.7061 16C80.7061 24.291 74.0337 31 65.8184 31H15.8877C7.67234 31 1 24.291 1 16C1 7.70905 7.67234 1 15.8877 1Z" fill="#054A5B" stroke="#CCCCCC" stroke-width="2"/>
<path d="M30.7547 13.6283C30.7177 13.2559 30.5592 12.9666 30.2792 12.7604C29.9991 12.5542 29.619 12.4511 29.1389 12.4511C28.8127 12.4511 28.5372 12.4973 28.3126 12.5896C28.0879 12.6789 27.9155 12.8035 27.7955 12.9636C27.6786 13.1236 27.6201 13.3052 27.6201 13.5083C27.6139 13.6776 27.6493 13.8253 27.7263 13.9515C27.8063 14.0777 27.9155 14.1869 28.054 14.2793C28.1925 14.3685 28.3526 14.447 28.5342 14.5147C28.7157 14.5793 28.9096 14.6347 29.1158 14.6809L29.9653 14.884C30.3777 14.9763 30.7562 15.0994 31.1009 15.2533C31.4456 15.4072 31.7441 15.5965 31.9965 15.8212C32.2489 16.0458 32.4443 16.3105 32.5828 16.6152C32.7244 16.9199 32.7967 17.2692 32.7998 17.6631C32.7967 18.2417 32.649 18.7434 32.3566 19.1681C32.0673 19.5897 31.6487 19.9175 31.1009 20.1514C30.5562 20.3822 29.8991 20.4976 29.1297 20.4976C28.3664 20.4976 27.7016 20.3807 27.1354 20.1468C26.5721 19.9129 26.132 19.5667 25.815 19.1081C25.5011 18.6464 25.3365 18.0755 25.3211 17.3954H27.2554C27.2769 17.7124 27.3677 17.9771 27.5278 18.1894C27.6909 18.3987 27.9079 18.5572 28.1787 18.6649C28.4526 18.7695 28.7619 18.8219 29.1066 18.8219C29.4451 18.8219 29.7391 18.7726 29.9883 18.6741C30.2407 18.5757 30.4361 18.4387 30.5746 18.2633C30.7131 18.0878 30.7824 17.8863 30.7824 17.6585C30.7824 17.4462 30.7193 17.2677 30.5931 17.123C30.47 16.9784 30.2884 16.8552 30.0484 16.7537C29.8114 16.6521 29.5205 16.5598 29.1758 16.4767L28.1464 16.2182C27.3493 16.0243 26.7199 15.7211 26.2582 15.3087C25.7966 14.8963 25.5673 14.3408 25.5704 13.6422C25.5673 13.0697 25.7196 12.5696 26.0274 12.1418C26.3382 11.714 26.7645 11.3801 27.3062 11.14C27.8478 10.9 28.4634 10.78 29.1528 10.78C29.8545 10.78 30.4669 10.9 30.9901 11.14C31.5164 11.3801 31.9257 11.714 32.2181 12.1418C32.5105 12.5696 32.6613 13.0651 32.6705 13.6283H30.7547ZM35.5581 20.3638H33.4161L36.6799 10.9092H39.2559L42.5152 20.3638H40.3731L38.0049 13.0697H37.931L35.5581 20.3638ZM35.4242 16.6475H40.4839V18.2079H35.4242V16.6475ZM44.1805 10.9092L46.4657 18.0925H46.5534L48.8432 10.9092H51.0591L47.7999 20.3638H45.2239L41.96 10.9092H44.1805ZM52.1971 20.3638V10.9092H58.5678V12.5573H54.196V14.8101H58.24V16.4582H54.196V18.7157H58.5863V20.3638H52.1971Z" fill="white"/>
</svg>
