<svg width="371" height="188" viewBox="0 0 371 188" fill="none" xmlns="http://www.w3.org/2000/svg">
<rect x="1.5" y="38.5" width="369" height="48" rx="9.5" fill="white" stroke="black"/>
<path d="M14.3068 11.4545H16.0682V21.0852C16.0682 22.0795 15.8338 22.9673 15.3651 23.7486C14.901 24.5251 14.2453 25.1383 13.3977 25.5881C12.5502 26.0331 11.5559 26.2557 10.4148 26.2557C9.27367 26.2557 8.27936 26.0331 7.43182 25.5881C6.58428 25.1383 5.92614 24.5251 5.45739 23.7486C4.99337 22.9673 4.76136 22.0795 4.76136 21.0852V11.4545H6.52273V20.9432C6.52273 21.6534 6.67898 22.2855 6.99148 22.8395C7.30398 23.3887 7.74905 23.822 8.3267 24.1392C8.90909 24.4517 9.60511 24.608 10.4148 24.608C11.2244 24.608 11.9205 24.4517 12.5028 24.1392C13.0852 23.822 13.5303 23.3887 13.8381 22.8395C14.1506 22.2855 14.3068 21.6534 14.3068 20.9432V11.4545ZM27.0856 17.5341L25.5799 17.9602C25.4852 17.7093 25.3455 17.4654 25.1609 17.2287C24.9809 16.9872 24.7347 16.7884 24.4222 16.6321C24.1097 16.4759 23.7096 16.3977 23.2219 16.3977C22.5543 16.3977 21.998 16.5516 21.5529 16.8594C21.1126 17.1624 20.8924 17.5483 20.8924 18.017C20.8924 18.4337 21.0439 18.7628 21.3469 19.0043C21.65 19.2457 22.1235 19.447 22.7674 19.608L24.3867 20.0057C25.3621 20.2424 26.0889 20.6046 26.5671 21.0923C27.0453 21.5753 27.2844 22.1979 27.2844 22.9602C27.2844 23.5852 27.1045 24.1439 26.7447 24.6364C26.3896 25.1288 25.8924 25.517 25.2532 25.8011C24.614 26.0852 23.8706 26.2273 23.0231 26.2273C21.9104 26.2273 20.9895 25.9858 20.2603 25.5028C19.5311 25.0199 19.0695 24.3144 18.8754 23.3864L20.4663 22.9886C20.6178 23.5758 20.9042 24.0161 21.3256 24.3097C21.7518 24.6032 22.3081 24.75 22.9947 24.75C23.7759 24.75 24.3962 24.5843 24.8555 24.2528C25.3195 23.9167 25.5515 23.5142 25.5515 23.0455C25.5515 22.6667 25.4189 22.3494 25.1538 22.0938C24.8886 21.8333 24.4814 21.6392 23.9322 21.5114L22.114 21.0852C21.1149 20.8485 20.381 20.4815 19.9123 19.9844C19.4483 19.4825 19.2163 18.8551 19.2163 18.1023C19.2163 17.4867 19.3891 16.9422 19.7347 16.4688C20.0851 15.9953 20.561 15.6236 21.1623 15.3537C21.7683 15.0838 22.4549 14.9489 23.2219 14.9489C24.3015 14.9489 25.149 15.1856 25.7646 15.6591C26.3848 16.1326 26.8252 16.7576 27.0856 17.5341ZM34.3814 26.2273C33.3303 26.2273 32.4235 25.9953 31.6612 25.5312C30.9036 25.0625 30.3189 24.4091 29.907 23.571C29.4998 22.7282 29.2962 21.7481 29.2962 20.6307C29.2962 19.5133 29.4998 18.5284 29.907 17.6761C30.3189 16.8191 30.8918 16.1515 31.6257 15.6733C32.3643 15.1903 33.2261 14.9489 34.2109 14.9489C34.7791 14.9489 35.3402 15.0436 35.8942 15.233C36.4482 15.4223 36.9524 15.7301 37.407 16.1562C37.8615 16.5777 38.2237 17.1364 38.4936 17.8324C38.7635 18.5284 38.8984 19.3854 38.8984 20.4034V21.1136H30.4893V19.6648H37.1939C37.1939 19.0492 37.0708 18.5 36.8246 18.017C36.5831 17.5341 36.2375 17.1529 35.7876 16.8736C35.3426 16.5942 34.817 16.4545 34.2109 16.4545C33.5433 16.4545 32.9657 16.6203 32.478 16.9517C31.995 17.2784 31.6233 17.7045 31.3629 18.2301C31.1025 18.7557 30.9723 19.3191 30.9723 19.9205V20.8864C30.9723 21.7102 31.1143 22.4086 31.3984 22.9815C31.6873 23.5497 32.0874 23.983 32.5987 24.2812C33.1101 24.5748 33.7043 24.7216 34.3814 24.7216C34.8217 24.7216 35.2195 24.66 35.5746 24.5369C35.9344 24.4091 36.2446 24.2197 36.505 23.9688C36.7654 23.7131 36.9666 23.3958 37.1087 23.017L38.728 23.4716C38.5575 24.0208 38.2711 24.5038 37.8686 24.9205C37.4661 25.3324 36.969 25.6544 36.3771 25.8864C35.7853 26.1136 35.12 26.2273 34.3814 26.2273ZM41.4482 26V15.0909H43.0675V16.7386H43.1811C43.38 16.1989 43.7398 15.7609 44.2607 15.4247C44.7815 15.0885 45.3686 14.9205 46.022 14.9205C46.1451 14.9205 46.299 14.9228 46.4837 14.9276C46.6683 14.9323 46.808 14.9394 46.9027 14.9489V16.6534C46.8459 16.6392 46.7157 16.6179 46.5121 16.5895C46.3132 16.5563 46.1025 16.5398 45.88 16.5398C45.3497 16.5398 44.8762 16.651 44.4595 16.8736C44.0476 17.0914 43.7209 17.3944 43.4794 17.7827C43.2427 18.1662 43.1243 18.6042 43.1243 19.0966V26H41.4482ZM50.5657 19.4375V26H48.8896V15.0909H50.5089V16.7955H50.6509C50.9066 16.2415 51.2949 15.7964 51.8157 15.4602C52.3365 15.1193 53.0089 14.9489 53.8327 14.9489C54.5714 14.9489 55.2177 15.1004 55.7717 15.4034C56.3256 15.7017 56.7565 16.1562 57.0643 16.767C57.372 17.3731 57.5259 18.1402 57.5259 19.0682V26H55.8498V19.1818C55.8498 18.3248 55.6272 17.6572 55.1822 17.179C54.7371 16.696 54.1263 16.4545 53.3498 16.4545C52.8147 16.4545 52.3365 16.5705 51.9151 16.8026C51.4985 17.0346 51.1694 17.3731 50.9279 17.8182C50.6864 18.2633 50.5657 18.803 50.5657 19.4375ZM63.799 26.2557C63.1077 26.2557 62.4804 26.1255 61.9169 25.8651C61.3535 25.5999 60.906 25.2188 60.5746 24.7216C60.2431 24.2197 60.0774 23.6136 60.0774 22.9034C60.0774 22.2784 60.2005 21.7718 60.4467 21.3835C60.6929 20.9905 61.022 20.6828 61.4339 20.4602C61.8459 20.2377 62.3004 20.072 62.7976 19.9631C63.2995 19.8494 63.8037 19.7595 64.3104 19.6932C64.9732 19.608 65.5107 19.544 65.9226 19.5014C66.3393 19.4541 66.6423 19.3759 66.8317 19.267C67.0258 19.1581 67.1229 18.9687 67.1229 18.6989V18.642C67.1229 17.9413 66.9311 17.3968 66.5476 17.0085C66.1688 16.6203 65.5935 16.4261 64.8217 16.4261C64.0215 16.4261 63.3942 16.6013 62.9396 16.9517C62.4851 17.3021 62.1655 17.6761 61.9808 18.0739L60.3899 17.5057C60.674 16.8428 61.0528 16.3267 61.5263 15.9574C62.0045 15.5833 62.5253 15.3229 63.0888 15.1761C63.657 15.0246 64.2157 14.9489 64.7649 14.9489C65.1153 14.9489 65.5178 14.9915 65.9723 15.0767C66.4316 15.1572 66.8743 15.3253 67.3004 15.581C67.7313 15.8366 68.0888 16.2225 68.3729 16.7386C68.657 17.2547 68.799 17.946 68.799 18.8125V26H67.1229V24.5227H67.0376C66.924 24.7595 66.7346 25.0128 66.4695 25.2827C66.2043 25.5526 65.8516 25.7822 65.4112 25.9716C64.9709 26.161 64.4335 26.2557 63.799 26.2557ZM64.0547 24.75C64.7176 24.75 65.2763 24.6198 65.7308 24.3594C66.1901 24.099 66.5357 23.7628 66.7678 23.3509C67.0045 22.9389 67.1229 22.5057 67.1229 22.0511V20.517C67.0518 20.6023 66.8956 20.6804 66.6541 20.7514C66.4174 20.8177 66.1428 20.8769 65.8303 20.929C65.5225 20.9763 65.2218 21.0189 64.9283 21.0568C64.6394 21.09 64.4051 21.1184 64.2251 21.142C63.7895 21.1989 63.3823 21.2912 63.0036 21.419C62.6295 21.5421 62.3265 21.7292 62.0945 21.9801C61.8672 22.2263 61.7536 22.5625 61.7536 22.9886C61.7536 23.571 61.969 24.0114 62.3999 24.3097C62.8355 24.6032 63.3871 24.75 64.0547 24.75ZM71.8583 26V15.0909H73.4776V16.7955H73.6197C73.8469 16.2131 74.2139 15.7609 74.7205 15.4389C75.2272 15.1122 75.8356 14.9489 76.5458 14.9489C77.2655 14.9489 77.8645 15.1122 78.3427 15.4389C78.8256 15.7609 79.2021 16.2131 79.4719 16.7955H79.5856C79.8649 16.232 80.284 15.7846 80.8427 15.4531C81.4014 15.117 82.0714 14.9489 82.8526 14.9489C83.828 14.9489 84.6258 15.2543 85.2461 15.8651C85.8664 16.4711 86.1765 17.4157 86.1765 18.6989V26H84.5004V18.6989C84.5004 17.8939 84.2802 17.3187 83.8398 16.973C83.3995 16.6274 82.881 16.4545 82.2844 16.4545C81.5174 16.4545 80.9232 16.6866 80.5018 17.1506C80.0804 17.6098 79.8697 18.1922 79.8697 18.8977V26H78.1651V18.5284C78.1651 17.9081 77.9639 17.4086 77.5614 17.0298C77.159 16.6463 76.6405 16.4545 76.006 16.4545C75.5704 16.4545 75.1632 16.5705 74.7844 16.8026C74.4104 17.0346 74.1074 17.3565 73.8754 17.7685C73.6481 18.1757 73.5344 18.6468 73.5344 19.1818V26H71.8583ZM93.815 26.2273C92.7638 26.2273 91.8571 25.9953 91.0948 25.5312C90.3372 25.0625 89.7525 24.4091 89.3406 23.571C88.9334 22.7282 88.7298 21.7481 88.7298 20.6307C88.7298 19.5133 88.9334 18.5284 89.3406 17.6761C89.7525 16.8191 90.3254 16.1515 91.0593 15.6733C91.7979 15.1903 92.6597 14.9489 93.6445 14.9489C94.2127 14.9489 94.7738 15.0436 95.3278 15.233C95.8817 15.4223 96.386 15.7301 96.8406 16.1562C97.2951 16.5777 97.6573 17.1364 97.9272 17.8324C98.1971 18.5284 98.332 19.3854 98.332 20.4034V21.1136H89.9229V19.6648H96.6275C96.6275 19.0492 96.5044 18.5 96.2582 18.017C96.0167 17.5341 95.671 17.1529 95.2212 16.8736C94.7762 16.5942 94.2506 16.4545 93.6445 16.4545C92.9769 16.4545 92.3993 16.6203 91.9116 16.9517C91.4286 17.2784 91.0569 17.7045 90.7965 18.2301C90.5361 18.7557 90.4059 19.3191 90.4059 19.9205V20.8864C90.4059 21.7102 90.5479 22.4086 90.832 22.9815C91.1209 23.5497 91.521 23.983 92.0323 24.2812C92.5437 24.5748 93.1379 24.7216 93.815 24.7216C94.2553 24.7216 94.6531 24.66 95.0082 24.5369C95.368 24.4091 95.6781 24.2197 95.9386 23.9688C96.199 23.7131 96.4002 23.3958 96.5423 23.017L98.1616 23.4716C97.9911 24.0208 97.7047 24.5038 97.3022 24.9205C96.8997 25.3324 96.4026 25.6544 95.8107 25.8864C95.2189 26.1136 94.5536 26.2273 93.815 26.2273Z" fill="#333333"/>
<rect x="0.5" y="139.5" width="369" height="48" rx="9.5" fill="white" stroke="black"/>
<path d="M3.76136 127V112.455H8.67614C9.81724 112.455 10.75 112.661 11.4744 113.072C12.2036 113.48 12.7434 114.031 13.0938 114.727C13.4441 115.423 13.6193 116.2 13.6193 117.057C13.6193 117.914 13.4441 118.693 13.0938 119.393C12.7481 120.094 12.2131 120.653 11.4886 121.07C10.7642 121.482 9.83617 121.688 8.70455 121.688H5.18182V120.125H8.64773C9.42898 120.125 10.0563 119.99 10.5298 119.72C11.0033 119.45 11.3466 119.086 11.5597 118.626C11.7775 118.162 11.8864 117.639 11.8864 117.057C11.8864 116.474 11.7775 115.954 11.5597 115.494C11.3466 115.035 11.0009 114.675 10.5227 114.415C10.0445 114.15 9.41004 114.017 8.61932 114.017H5.52273V127H3.76136ZM19.4396 127.256C18.7483 127.256 18.121 127.125 17.5575 126.865C16.9941 126.6 16.5466 126.219 16.2152 125.722C15.8838 125.22 15.718 124.614 15.718 123.903C15.718 123.278 15.8411 122.772 16.0874 122.384C16.3336 121.991 16.6626 121.683 17.0746 121.46C17.4865 121.238 17.9411 121.072 18.4382 120.963C18.9401 120.849 19.4444 120.759 19.951 120.693C20.6139 120.608 21.1513 120.544 21.5632 120.501C21.9799 120.454 22.2829 120.376 22.4723 120.267C22.6664 120.158 22.7635 119.969 22.7635 119.699V119.642C22.7635 118.941 22.5717 118.397 22.1882 118.009C21.8094 117.62 21.2341 117.426 20.4624 117.426C19.6622 117.426 19.0348 117.601 18.5803 117.952C18.1257 118.302 17.8061 118.676 17.6214 119.074L16.0305 118.506C16.3146 117.843 16.6934 117.327 17.1669 116.957C17.6451 116.583 18.166 116.323 18.7294 116.176C19.2976 116.025 19.8563 115.949 20.4055 115.949C20.7559 115.949 21.1584 115.991 21.6129 116.077C22.0722 116.157 22.5149 116.325 22.9411 116.581C23.3719 116.837 23.7294 117.223 24.0135 117.739C24.2976 118.255 24.4396 118.946 24.4396 119.812V127H22.7635V125.523H22.6783C22.5646 125.759 22.3752 126.013 22.1101 126.283C21.8449 126.553 21.4922 126.782 21.0518 126.972C20.6115 127.161 20.0741 127.256 19.4396 127.256ZM19.6953 125.75C20.3582 125.75 20.9169 125.62 21.3714 125.359C21.8307 125.099 22.1764 124.763 22.4084 124.351C22.6451 123.939 22.7635 123.506 22.7635 123.051V121.517C22.6925 121.602 22.5362 121.68 22.2947 121.751C22.058 121.818 21.7834 121.877 21.4709 121.929C21.1631 121.976 20.8625 122.019 20.5689 122.057C20.2801 122.09 20.0457 122.118 19.8658 122.142C19.4302 122.199 19.023 122.291 18.6442 122.419C18.2701 122.542 17.9671 122.729 17.7351 122.98C17.5078 123.226 17.3942 123.562 17.3942 123.989C17.3942 124.571 17.6096 125.011 18.0405 125.31C18.4761 125.603 19.0277 125.75 19.6953 125.75ZM35.2262 118.534L33.7205 118.96C33.6258 118.709 33.4862 118.465 33.3015 118.229C33.1216 117.987 32.8754 117.788 32.5629 117.632C32.2504 117.476 31.8503 117.398 31.3626 117.398C30.695 117.398 30.1386 117.552 29.6935 117.859C29.2532 118.162 29.033 118.548 29.033 119.017C29.033 119.434 29.1845 119.763 29.4876 120.004C29.7906 120.246 30.2641 120.447 30.908 120.608L32.5273 121.006C33.5027 121.242 34.2295 121.605 34.7077 122.092C35.186 122.575 35.4251 123.198 35.4251 123.96C35.4251 124.585 35.2451 125.144 34.8853 125.636C34.5302 126.129 34.033 126.517 33.3938 126.801C32.7546 127.085 32.0112 127.227 31.1637 127.227C30.051 127.227 29.1301 126.986 28.4009 126.503C27.6718 126.02 27.2101 125.314 27.016 124.386L28.6069 123.989C28.7584 124.576 29.0449 125.016 29.4663 125.31C29.8924 125.603 30.4487 125.75 31.1353 125.75C31.9165 125.75 32.5368 125.584 32.9961 125.253C33.4601 124.917 33.6921 124.514 33.6921 124.045C33.6921 123.667 33.5595 123.349 33.2944 123.094C33.0292 122.833 32.622 122.639 32.0728 122.511L30.2546 122.085C29.2556 121.848 28.5217 121.482 28.0529 120.984C27.5889 120.482 27.3569 119.855 27.3569 119.102C27.3569 118.487 27.5297 117.942 27.8754 117.469C28.2257 116.995 28.7016 116.624 29.3029 116.354C29.909 116.084 30.5955 115.949 31.3626 115.949C32.4421 115.949 33.2897 116.186 33.9052 116.659C34.5254 117.133 34.9658 117.758 35.2262 118.534ZM45.6754 118.534L44.1697 118.96C44.075 118.709 43.9354 118.465 43.7507 118.229C43.5708 117.987 43.3246 117.788 43.0121 117.632C42.6996 117.476 42.2995 117.398 41.8118 117.398C41.1442 117.398 40.5878 117.552 40.1428 117.859C39.7024 118.162 39.4822 118.548 39.4822 119.017C39.4822 119.434 39.6338 119.763 39.9368 120.004C40.2398 120.246 40.7133 120.447 41.3572 120.608L42.9766 121.006C43.9519 121.242 44.6787 121.605 45.157 122.092C45.6352 122.575 45.8743 123.198 45.8743 123.96C45.8743 124.585 45.6944 125.144 45.3345 125.636C44.9794 126.129 44.4822 126.517 43.843 126.801C43.2038 127.085 42.4605 127.227 41.6129 127.227C40.5002 127.227 39.5793 126.986 38.8501 126.503C38.121 126.02 37.6593 125.314 37.4652 124.386L39.0561 123.989C39.2076 124.576 39.4941 125.016 39.9155 125.31C40.3416 125.603 40.898 125.75 41.5845 125.75C42.3658 125.75 42.986 125.584 43.4453 125.253C43.9093 124.917 44.1413 124.514 44.1413 124.045C44.1413 123.667 44.0088 123.349 43.7436 123.094C43.4785 122.833 43.0713 122.639 42.522 122.511L40.7038 122.085C39.7048 121.848 38.9709 121.482 38.5021 120.984C38.0381 120.482 37.8061 119.855 37.8061 119.102C37.8061 118.487 37.9789 117.942 38.3246 117.469C38.675 116.995 39.1508 116.624 39.7521 116.354C40.3582 116.084 41.0447 115.949 41.8118 115.949C42.8913 115.949 43.7389 116.186 44.3544 116.659C44.9747 117.133 45.415 117.758 45.6754 118.534ZM50.869 127L47.5451 116.091H49.3065L51.6644 124.443H51.7781L54.1076 116.091H55.8974L58.1985 124.415H58.3121L60.6701 116.091H62.4315L59.1076 127H57.4599L55.0735 118.619H54.9031L52.5167 127H50.869ZM68.7081 127.227C67.7232 127.227 66.8591 126.993 66.1158 126.524C65.3771 126.055 64.7995 125.4 64.3828 124.557C63.9709 123.714 63.7649 122.729 63.7649 121.602C63.7649 120.466 63.9709 119.474 64.3828 118.626C64.7995 117.779 65.3771 117.121 66.1158 116.652C66.8591 116.183 67.7232 115.949 68.7081 115.949C69.6929 115.949 70.5547 116.183 71.2933 116.652C72.0367 117.121 72.6143 117.779 73.0263 118.626C73.4429 119.474 73.6513 120.466 73.6513 121.602C73.6513 122.729 73.4429 123.714 73.0263 124.557C72.6143 125.4 72.0367 126.055 71.2933 126.524C70.5547 126.993 69.6929 127.227 68.7081 127.227ZM68.7081 125.722C69.4562 125.722 70.0717 125.53 70.5547 125.146C71.0376 124.763 71.3951 124.259 71.6271 123.634C71.8591 123.009 71.9751 122.331 71.9751 121.602C71.9751 120.873 71.8591 120.194 71.6271 119.564C71.3951 118.934 71.0376 118.425 70.5547 118.037C70.0717 117.649 69.4562 117.455 68.7081 117.455C67.96 117.455 67.3445 117.649 66.8615 118.037C66.3786 118.425 66.0211 118.934 65.7891 119.564C65.5571 120.194 65.4411 120.873 65.4411 121.602C65.4411 122.331 65.5571 123.009 65.7891 123.634C66.0211 124.259 66.3786 124.763 66.8615 125.146C67.3445 125.53 67.96 125.722 68.7081 125.722ZM76.2099 127V116.091H77.8292V117.739H77.9428C78.1417 117.199 78.5015 116.761 79.0224 116.425C79.5432 116.089 80.1303 115.92 80.7837 115.92C80.9068 115.92 81.0607 115.923 81.2454 115.928C81.43 115.932 81.5697 115.939 81.6644 115.949V117.653C81.6076 117.639 81.4774 117.618 81.2738 117.589C81.0749 117.556 80.8642 117.54 80.6417 117.54C80.1114 117.54 79.6379 117.651 79.2212 117.874C78.8093 118.091 78.4826 118.394 78.2411 118.783C78.0044 119.166 77.886 119.604 77.886 120.097V127H76.2099ZM87.4386 127.227C86.5295 127.227 85.7269 126.998 85.0309 126.538C84.3349 126.074 83.7904 125.421 83.3974 124.578C83.0044 123.731 82.8079 122.729 82.8079 121.574C82.8079 120.428 83.0044 119.434 83.3974 118.591C83.7904 117.748 84.3372 117.097 85.038 116.638C85.7388 116.179 86.5484 115.949 87.467 115.949C88.1772 115.949 88.7383 116.067 89.1502 116.304C89.5669 116.536 89.8841 116.801 90.1019 117.099C90.3245 117.393 90.4973 117.634 90.6204 117.824H90.7624V112.455H92.4386V127H90.8192V125.324H90.6204C90.4973 125.523 90.3221 125.774 90.0948 126.077C89.8675 126.375 89.5432 126.643 89.1218 126.879C88.7004 127.111 88.1393 127.227 87.4386 127.227ZM87.6658 125.722C88.3382 125.722 88.9064 125.546 89.3704 125.196C89.8344 124.841 90.1871 124.351 90.4286 123.726C90.6701 123.096 90.7908 122.369 90.7908 121.545C90.7908 120.731 90.6725 120.018 90.4357 119.408C90.199 118.792 89.8486 118.314 89.3846 117.973C88.9206 117.627 88.3477 117.455 87.6658 117.455C86.9556 117.455 86.3638 117.637 85.8903 118.001C85.4215 118.361 85.0688 118.851 84.832 119.472C84.6 120.087 84.484 120.778 84.484 121.545C84.484 122.322 84.6024 123.027 84.8391 123.662C85.0806 124.292 85.4357 124.794 85.9045 125.168C86.378 125.537 86.9651 125.722 87.6658 125.722Z" fill="#333333"/>
</svg>
