<svg width="105" height="43" viewBox="0 0 105 43" fill="none" xmlns="http://www.w3.org/2000/svg">
<rect x="1.5" y="1.5" width="102" height="40" rx="8.5" fill="#054A5B" stroke="#F1F2F2" stroke-width="3"/>
<path d="M34.397 15.3636L37.6357 24.8409H37.7663L41.005 15.3636H42.9027L38.7152 27H36.6868L32.4993 15.3636H34.397ZM46.3388 15.3636V27H44.5831V15.3636H46.3388ZM48.8956 27V15.3636H56.1911V16.875H50.6513V20.4205H55.8104V21.9261H50.6513V25.4886H56.2592V27H48.8956ZM60.8146 27L57.5874 15.3636H59.4339L61.701 24.375H61.8089L64.1669 15.3636H65.9964L68.3544 24.3807H68.4624L70.7237 15.3636H72.576L69.343 27H67.576L65.1271 18.2841H65.0362L62.5874 27H60.8146Z" fill="white"/>
</svg>
